<?xml version="1.0" encoding="utf-8"?>
<!-- Generator: Adobe Illustrator 15.0.0, SVG Export Plug-In . SVG Version: 6.00 Build 0)  -->
<!DOCTYPE svg PUBLIC "-//W3C//DTD SVG 1.1//EN" "http://www.w3.org/Graphics/SVG/1.1/DTD/svg11.dtd">
<svg version="1.1" id="Livello_1" xmlns="http://www.w3.org/2000/svg" xmlns:xlink="http://www.w3.org/1999/xlink" x="0px" y="0px"
	 width="335px" height="60px" viewBox="0 0 335 60" enable-background="new 0 0 335 60" xml:space="preserve">
<g>
	<path fill="#005CA9" d="M146.877,57.838c0,0-1.361-2.889,0.086-18.434c0.838-9.006,3.654-23.751,7.063-31.938
		c2.725-6.541,8.172-6.797,10.043-6.797c1.876,0,7.833-0.169,12.6,5.182c3.918,4.4,6.041,11.555,4.681,16.906
		c-1.434,5.631-3.916,11.891-8.513,15.544c-3.129,2.486-6.979,4.077-7.915,3.228c-1.56-1.415-3.917-5.013-3.406-8.496
		c0.203-1.386,2.724-2.377,4.599-4.075c1.871-1.699,4.596-5.606,4.424-10.023c-0.169-4.417-3.999-7.136-5.874-6.881
		c-1.444,0.195-5.021,11.552-6.894,27.606c-1.103,9.451-0.851,16.394-0.851,16.394s0.425,1.615-2.64,1.785
		C151.218,58.007,146.877,57.838,146.877,57.838"/>
	<path fill="#005CA9" d="M76.757,29.911c-1.309-0.236-3.213,1.934-5.682,12.891c-2.091,9.284-2.154,14.63-2.298,15.12
		c-0.211,0.722-0.595,1.444-3.064,1.359c-3.254-0.112-7.022-1.139-7.022-1.139s-0.382-0.581,0.81-9.225
		c1.949-14.14,6.806-29.17,8.256-32.789c0.34-0.849,6.255-1.02,7.149-0.934c0.894,0.085,1.319,0.254,1.447,0.849
		c0.339,1.58-1.125,4.391-0.033,4.841c2.261,0.936,4.488-5.296,7.219-5.521c2.063-0.169,3.598,0.974,3.282,2.209
		c-1.606,6.286-3.17,12.911-8.149,12.72C78.065,30.271,77.224,29.996,76.757,29.911"/>
	<path fill="#005CA9" d="M42.969,45.366c2.807,0.614,5.343-3.221,6.381-7.991c1.553-7.146,0.788-9.863-1.595-10.458
		c-2.648-0.661-5.192,3.484-6.333,7.579C39.76,40.46,40.179,44.755,42.969,45.366 M33.114,32.949
		c2.463-8.847,10.06-19.248,17.705-16.735c6.979,2.294,9.447,12.487,6.723,23.106c-2.723,10.618-12.256,21.148-19.661,17.667
		C30.476,53.506,30.562,42.122,33.114,32.949"/>
	<path fill="#005CA9" d="M97.336,58.091c0,0-0.489,0.936-2.723,1.188c-0.727,0.085-1.477,0.064-2.173-0.051
		c-5.934-0.966-5.455-7.259-5.296-9.376c0.447-5.926,4.107-18.249,4.979-20.77c0.147-0.426,0.11-1.195-0.443-1.237
		c-1.153-0.089-4.11,0.559-4.344-0.822c-0.12-0.702,2.233-9.917,2.68-10.108c0.447-0.191,4.086-0.127,4.661-0.445
		c0.574-0.319,2.57-8.745,3.528-9.064c0.958-0.318,9.26,0.329,9.26,0.329s-1.858,7.127-1.916,7.51
		c-0.057,0.381-0.168,1.098,0.342,1.289s5.425,0.191,5.425,0.191s-2.208,7.069-2.357,7.532c-0.452,1.407-0.938,3.51-2.423,3.51
		c-3.03,0-3.63-0.117-4.203,0.52c-0.576,0.639-5.359,16.661-5.039,19.337c0.318,2.675,2.361,3.887,2.361,3.887L97.336,58.091z"/>
	<path fill="#005CA9" d="M226.434,26.28c-1.309-0.238-4.298,2.091-6.809,13.04c-1.617,7.05-1.106,16.14-1.106,16.14
		s-0.426,1.443-3.489,1.612c-3.064,0.171-5.831-0.339-5.831-0.339s-1.83-4.758-0.128-15.12c2.313-14.085,4.849-24.243,6.298-27.862
		c0.341-0.85,2.555-2.463,7.15-2.038c0.894,0.082,2.255,0.51,2.383,1.104c0.34,1.581-2.468,5.097-0.34,5.946
		c2.415,0.964,3.064-5.097,8.171-5.182c2.22-0.038,3.149,0.722,3.149,0.722c-0.195,1.26-1.746,9.472-3.191,11.085
		C231.243,27.002,226.901,26.364,226.434,26.28"/>
	<path fill="#005CA9" d="M190.967,45.096c2.81,1.528,6.282-4.573,7.319-9.345c1.555-7.145,0.681-10.277-1.106-10.788
		c-2.623-0.748-5.752,4.314-6.894,8.41C188.624,39.338,188.442,43.721,190.967,45.096 M182.37,29.721
		c3.661-9.344,9.448-18.798,17.703-16.591c7.098,1.899,9.447,12.343,6.725,22.96c-2.724,10.619-9.402,24.422-20.767,19.37
		C177.434,51.636,178.896,38.588,182.37,29.721"/>
	<path fill="#005CA9" d="M247.462,57.539c0,0-0.491,0.937-2.725,1.189c-0.726,0.083-1.476,0.063-2.173-0.052
		c-5.933-0.967-6.123-8.446-5.977-10.565c0.554-7.899,2.484-18.287,3.167-21.996c0.111-0.6,0.111-1.236-0.443-1.236
		c-1.872,0-2.821-0.384-3.14-1.02c-0.32-0.638,2.297-10.321,2.743-10.512c0.447-0.191,3.651-0.128,4.228-0.446
		c0.574-0.318,1.851-8.686,2.809-9.004c0.957-0.319,7.015,0.684,7.015,0.684l-1.142,7.216c0,0-0.385,1.21,0.128,1.401
		c0.51,0.191,5.83,0.468,5.83,0.468s-1.725,9.076-1.916,9.522c-0.19,0.446,0,0.955-0.958,1.146
		c-0.957,0.191-4.383-0.255-4.958,0.383c-0.573,0.636-4.383,14.092-3.829,21.354c0.204,2.687,3.659,4.885,3.659,4.885
		L247.462,57.539z"/>
	<path fill="#005CA9" d="M134.225,45.52c0.519,2.814,3.384,3.44,3.384,3.44l-2.342,8.962c-0.726,0.082-1.476,0.062-2.173-0.052
		c-5.934-0.967-9.164-6.808-8.27-10.438c0.893-3.631,3.876-13.252,3.876-18.476c0-2.039-1.776-3.24-3.319-3.187
		c-1.788,0.064-4.427,1.008-7.661,8.793c-4.744,11.425,4.363,13.677,4.363,13.677l-4.682,10.448c0,0-2.396-0.335-4.256-1.274
		c-3.447-1.742-8.128-7.37-7.362-14.633c0.902-8.549,3.958-15.312,8.299-21.342c3.135-4.355,7.466-6.984,13.342-6.435
		c2.042,0.191,2.553,1.227,2.553,1.227s6.448-1.163,11.747,0.62c0,0-0.638,2.677-1.725,6.244
		C137.692,30.682,133.948,44.01,134.225,45.52"/>
	<path fill="#005CA9" d="M319.606,38.979c2.097,1.522,4.942-3.626,5.873-7.476c1.191-4.927,0.891-9.501-1.556-9.931
		c-2.732-0.479-4.997,5.977-5.423,8.231C318.077,32.058,317.506,37.451,319.606,38.979 M330.927,53.59
		c-0.871,2.506-4.363,4.901-6.383,4.587c-7.064-1.104-14.129-6.114-16.683-13.591c-1.407-4.119-1.381-12.275,1.702-18.604
		c6.131-12.571,11.541-14.118,17.192-13.59c5.449,0.51,10.442,7.541,7.236,18.178c-2.895,9.6-9.326,11.354-9.704,13.422
		c-0.68,3.737,6.81,7.22,6.81,7.22S331.53,51.862,330.927,53.59"/>
	<path fill="#005CA9" d="M21.965,19.715c-0.389-4.404-4.462-6.942-6.377-6.599c-1.477,0.263-5.354,16.022-5.734,27.781
		C9.475,52.656,9.708,57.259,9.708,57.259s0.34,1.02-2.724,1.189c-3.063,0.17-6.298-0.85-6.298-0.85S-0.42,51.313,0.176,40.44
		C0.671,31.41,3.24,9.353,6.645,5.784c2.414-2.529,4.597-2.378,6.469-2.378c1.873,0,10.725,0.849,14.98,4.926
		s6.043,9.854,4.681,15.206c-1.434,5.631-3.916,11.89-8.512,15.543c-3.13,2.488-6.979,4.078-7.915,3.228
		c-1.559-1.414-3.746-7.135-3.405-8.494c0.341-1.359,2.724-2.379,4.596-4.077C19.412,28.039,22.135,24.132,21.965,19.715"/>
	<path fill="#005CA9" d="M265.325,36.601c1.598,2.039,4.723-1.854,7.088-5.034c2.363-3.179,3.701-8.472,1.467-9.555
		c-2.495-1.21-6.059,4.383-7.085,6.435C265.767,30.497,263.726,34.556,265.325,36.601 M274.496,55.926
		c-0.609,1.443-1.827,2.38-2.808,2.337c-6.303-0.276-12.212-6.97-14.129-10.705c-1.786-3.481-3.787-11.127-1.531-17.795
		c4.307-12.735,14.51-18.778,20.085-17.711c4.214,0.809,9.027,5.512,5.278,15.97c-4.383,12.233-12.172,16.013-12.683,18.052
		c-0.511,2.038,6.896,5.563,6.896,5.563S275.775,52.912,274.496,55.926"/>
	<path fill="#005CA9" d="M293.682,13.984c2.791-2.188,8.358-3.267,12.288-0.446c1.82,1.307,2.482,3.562,1.947,5.033
		c-1.12,3.076-2.81,4.269-2.81,4.269s-3.255-1.911-4.978-0.382c-1.947,1.727-4.469,5.096-0.192,11.912
		c5.306,8.456,2.873,18.222-3.126,22.235c-4.503,3.012-14.748,2.994-16.407,0.764c-1.774-2.383,1.085-7.581,1.085-7.581
		s5.638,0.922,8.554-1.02c4.979-3.312,0.874-7.624-2.042-14.716C283.469,23.031,290.892,16.172,293.682,13.984"/>
</g>
</svg>
